<?xml version="1.0" standalone="no"?>
<!DOCTYPE svg PUBLIC "-//W3C//DTD SVG 20010904//EN"
 "http://www.w3.org/TR/2001/REC-SVG-20010904/DTD/svg10.dtd">
<svg version="1.0" xmlns="http://www.w3.org/2000/svg"
 width="1024.000000pt" height="1024.000000pt" viewBox="0 0 1024.000000 1024.000000"
 preserveAspectRatio="xMidYMid meet">
<metadata>
Created by potrace 1.14, written by Peter Selinger 2001-2017
</metadata>
<g transform="translate(0.000000,1024.000000) scale(0.100000,-0.100000)"
fill="#000000" stroke="none">
<path d="M4700 10223 c-97 -34 -189 -128 -207 -213 -5 -20 -15 -142 -14 -157
1 -14 1 -30 1 -68 0 -14 0 -32 0 -40 0 -8 0 -26 0 -40 0 -14 0 -33 0 -42 -1
-105 0 -135 5 -143 3 -6 3 -10 -2 -10 -8 0 -9 -101 0 -123 2 -7 1 -21 -3 -32
-4 -11 -4 -32 1 -47 4 -15 4 -30 -1 -33 -5 -3 -5 -18 0 -34 4 -15 4 -34 0 -41
-4 -7 -4 -26 0 -41 5 -16 5 -31 1 -34 -5 -2 -5 -23 -1 -45 4 -22 4 -40 0 -40
-4 0 -4 -16 0 -35 8 -33 6 -35 -24 -43 -17 -5 -33 -5 -34 0 -2 4 -8 6 -13 3
-5 -3 -50 -8 -101 -10 -51 -2 -109 -7 -128 -10 -19 -3 -55 -8 -80 -10 -25 -3
-52 -8 -60 -10 -8 -2 -28 -7 -45 -10 -16 -2 -40 -7 -52 -10 -13 -3 -33 -7 -45
-10 -110 -24 -375 -125 -478 -182 -112 -62 -185 -107 -188 -115 -2 -4 -8 -8
-13 -8 -10 0 -145 -98 -199 -145 -45 -39 -226 -220 -265 -265 -77 -88 -235
-322 -235 -348 0 -5 -3 -12 -7 -14 -5 -1 -21 -30 -38 -63 -16 -33 -34 -63 -40
-67 -5 -4 -7 -8 -3 -8 4 0 -5 -26 -18 -57 -14 -32 -32 -78 -40 -103 -8 -25
-19 -54 -24 -65 -27 -60 -83 -317 -97 -446 -9 -84 -9 -385 0 -473 17 -169 85
-431 149 -576 33 -75 119 -245 127 -250 4 -3 10 -13 14 -23 8 -21 126 -196
142 -212 6 -5 29 -32 50 -60 61 -76 241 -254 330 -326 44 -35 82 -66 85 -69
11 -11 159 -110 164 -110 3 0 30 -16 60 -35 30 -19 57 -35 60 -35 3 0 27 -13
53 -28 26 -16 50 -29 53 -29 3 0 34 -14 70 -30 36 -16 88 -37 115 -47 28 -10
57 -22 67 -26 9 -5 56 -21 105 -35 48 -15 100 -30 116 -35 15 -5 27 -6 27 -3
0 3 6 1 13 -4 10 -9 36 -18 82 -28 6 -2 66 -20 135 -40 69 -20 139 -41 155
-45 17 -5 54 -16 84 -25 30 -9 62 -18 70 -20 26 -6 135 -37 151 -43 8 -3 20
-6 25 -8 6 -1 42 -12 80 -24 39 -12 84 -25 100 -30 17 -4 71 -20 120 -35 50
-14 99 -29 110 -31 26 -7 37 -10 55 -16 21 -8 121 -37 145 -43 18 -4 162 -47
325 -96 36 -11 72 -22 80 -24 54 -12 237 -69 275 -85 95 -41 178 -108 240
-195 67 -94 104 -193 110 -296 2 -30 5 -59 6 -65 1 -5 1 -11 0 -14 -1 -3 -4
-25 -7 -48 -19 -186 -163 -380 -340 -458 -82 -36 -156 -51 -267 -52 -53 -1
-101 -3 -105 -3 -4 -1 -11 0 -17 1 -19 4 -126 1 -133 -4 -5 -3 -14 -1 -21 3
-7 5 -25 5 -40 2 -14 -4 -43 -4 -64 -1 -20 4 -40 4 -43 -1 -2 -4 -10 -6 -17
-3 -19 7 -147 10 -147 3 0 -4 -15 -4 -32 0 -18 4 -44 4 -58 1 -14 -4 -37 -3
-52 1 -14 4 -29 5 -31 3 -3 -3 -27 -5 -53 -4 -47 1 -70 1 -96 -1 -7 0 -41 1
-75 2 -35 1 -65 0 -68 -3 -4 -3 -21 -2 -39 2 -19 4 -39 4 -46 0 -7 -4 -27 -4
-45 0 -18 4 -39 4 -46 -1 -7 -4 -16 -6 -20 -4 -3 3 -55 7 -115 10 -111 6 -122
7 -208 25 -118 24 -304 103 -401 170 -96 66 -214 77 -314 30 -61 -30 -58 -27
-524 -483 -324 -317 -343 -341 -353 -441 -3 -23 -6 -46 -9 -53 -2 -6 -1 -14 2
-17 3 -3 7 -18 8 -33 5 -66 61 -149 150 -223 46 -39 212 -150 223 -150 6 0 12
-4 14 -9 6 -16 272 -154 393 -204 145 -59 309 -111 440 -141 80 -18 128 -29
135 -31 6 -1 91 -14 140 -21 58 -7 130 -14 223 -19 49 -3 94 -8 100 -12 5 -3
7 -1 4 5 -5 6 1 8 14 5 16 -4 20 -12 16 -30 -2 -13 -1 -26 4 -28 4 -3 4 -18 0
-33 -5 -15 -5 -37 -1 -48 5 -11 5 -27 0 -34 -4 -7 -4 -25 0 -40 4 -15 4 -33 0
-40 -5 -7 -5 -23 0 -34 4 -12 4 -30 0 -41 -4 -11 -4 -32 1 -47 4 -15 4 -30 -1
-33 -5 -3 -5 -18 -1 -33 5 -15 5 -36 1 -47 -4 -11 -4 -29 0 -41 5 -11 5 -26 0
-33 -4 -7 -4 -27 0 -45 4 -17 5 -40 4 -51 -4 -19 -5 -41 -4 -77 0 -10 0 -29 0
-43 0 -14 0 -32 0 -40 0 -8 0 -26 0 -40 0 -14 0 -33 0 -42 -3 -140 22 -215 98
-290 45 -45 82 -65 149 -83 45 -11 776 -14 787 -3 4 4 15 8 26 10 43 6 112 60
168 127 22 27 49 117 51 171 5 100 4 135 -1 141 -4 3 -3 18 1 32 5 15 5 36 1
47 -4 11 -4 29 0 41 5 11 5 27 0 34 -5 7 -5 23 0 34 4 12 4 30 0 41 -4 11 -4
29 0 40 4 11 4 32 0 46 -4 15 -4 32 0 39 5 7 5 23 0 35 -5 12 -5 28 0 35 4 7
4 24 0 39 -4 14 -4 35 0 46 4 11 4 32 0 46 -4 15 -4 32 0 39 5 7 5 23 0 35 -5
12 -5 28 0 35 4 7 4 24 0 39 -4 14 -4 35 0 46 4 11 4 32 -1 48 -4 15 -5 27 -1
28 4 1 25 2 47 4 82 5 220 17 225 20 3 2 28 6 55 9 176 22 412 91 606 176 127
56 298 148 327 177 7 7 17 13 22 13 5 0 15 6 22 13 7 7 29 24 48 37 19 13 37
27 40 30 3 3 17 13 31 22 76 48 312 285 381 383 4 5 18 24 31 40 82 108 178
279 242 430 48 115 116 351 131 455 3 19 7 46 9 60 26 152 27 511 0 640 -2 13
-7 42 -11 65 -5 34 -20 100 -53 230 -4 17 -13 40 -19 51 -6 11 -13 31 -15 45
-2 13 -9 36 -15 51 -78 190 -144 316 -234 452 -33 50 -63 93 -67 96 -3 3 -22
25 -41 50 -19 25 -42 54 -50 64 -45 57 -212 218 -301 291 -37 30 -168 125
-173 125 -3 0 -24 13 -48 29 -153 102 -387 198 -688 281 -36 10 -96 28 -135
40 -38 11 -77 23 -85 25 -8 2 -40 11 -70 20 -58 17 -99 29 -152 44 -18 5 -64
19 -103 31 -38 11 -79 23 -90 25 -11 3 -49 14 -85 25 -36 11 -83 25 -105 31
-22 6 -48 15 -57 20 -10 5 -25 9 -33 9 -9 0 -45 9 -81 21 -35 11 -72 22 -82
24 -9 2 -17 4 -17 5 0 1 -8 3 -17 6 -27 6 -41 10 -58 16 -19 8 -290 88 -310
92 -8 2 -35 10 -60 17 -25 7 -49 14 -55 15 -51 13 -387 115 -410 124 -16 6
-31 11 -33 10 -6 -2 -109 50 -132 67 -85 63 -177 181 -208 268 -5 17 -13 39
-18 50 -9 25 -13 42 -17 80 -2 17 -6 36 -10 41 -3 6 -4 14 -1 17 4 3 7 35 9
70 2 58 39 204 54 217 3 3 13 18 21 35 22 43 38 63 106 130 33 33 78 69 100
80 21 11 41 23 44 26 3 3 38 16 79 29 85 26 164 33 314 29 27 -1 132 0 160 2
6 0 40 -1 74 -2 35 -1 65 0 68 3 4 3 21 2 39 -2 19 -4 39 -4 46 0 7 4 27 4 45
0 18 -4 38 -4 45 0 6 4 26 4 43 1 18 -4 53 -4 80 -1 26 4 50 4 52 1 7 -6 123
-4 133 3 5 3 14 1 21 -3 7 -5 25 -5 40 -2 14 4 43 4 64 1 20 -4 40 -4 43 1 2
4 10 6 17 3 22 -8 147 -9 147 -1 0 5 4 6 8 3 5 -3 64 -8 131 -10 67 -3 126 -8
131 -11 4 -3 24 -7 44 -9 37 -5 107 -23 141 -36 104 -40 165 -68 231 -107 127
-73 154 -85 216 -90 108 -10 181 22 294 132 687 667 722 705 740 801 19 101
-16 212 -90 289 -81 84 -338 251 -526 342 -122 59 -287 129 -330 138 -8 2 -16
4 -17 5 -2 2 -6 3 -10 5 -5 1 -15 4 -23 7 -8 3 -35 11 -60 19 -25 7 -49 15
-55 18 -10 6 -17 7 -70 15 -16 3 -55 12 -85 20 -30 8 -71 17 -90 20 -19 2 -44
7 -56 9 -12 3 -45 8 -75 12 -30 3 -70 8 -91 11 -29 4 -167 11 -259 14 -13 0
-17 9 -15 36 1 20 -2 38 -6 41 -5 2 -5 9 -2 15 8 13 8 113 1 126 -3 4 -2 14 2
21 5 7 5 27 2 45 -4 17 -4 46 0 64 3 17 3 32 -1 32 -4 0 -4 16 0 35 4 19 4 37
0 40 -5 3 -5 18 -1 33 5 15 5 36 1 47 -4 11 -4 29 0 41 5 11 5 27 0 34 -5 7
-5 23 0 34 4 12 4 30 0 41 -4 11 -4 29 0 40 4 11 4 32 0 46 -4 15 -4 32 0 39
5 7 5 23 0 35 -5 12 -4 28 0 35 5 8 7 17 5 21 -3 3 -7 38 -9 77 -9 122 -68
211 -177 269 l-54 28 -390 2 c-333 2 -397 0 -435 -14z"/>
</g>
</svg>
